<?xml version="1.0" encoding="UTF-8"?>
<!DOCTYPE svg PUBLIC "-//W3C//DTD SVG 1.1//EN" "http://www.w3.org/Graphics/SVG/1.1/DTD/svg11.dtd">
<svg xmlns="http://www.w3.org/2000/svg" version="1.1" width="75px" height="629px" style="shape-rendering:geometricPrecision; text-rendering:geometricPrecision; image-rendering:optimizeQuality; fill-rule:evenodd; clip-rule:evenodd" xmlns:xlink="http://www.w3.org/1999/xlink">
<g><path style="opacity:1" fill="#4a7d99" d="M 35.5,12.5 C 36.4994,100.998 36.8327,189.665 36.5,278.5C 16.7138,280.624 4.38045,291.29 -0.5,310.5C -0.5,308.167 -0.5,305.833 -0.5,303.5C 11.5701,206.605 23.5701,109.605 35.5,12.5 Z"/></g>
<g><path style="opacity:1" fill="#386073" d="M 74.5,303.5 C 74.5,305.5 74.5,307.5 74.5,309.5C 69.075,290.418 56.4083,280.084 36.5,278.5C 36.8327,189.665 36.4994,100.998 35.5,12.5C 35.4847,8.4402 35.9847,4.4402 37,0.5C 49.4774,101.646 61.9774,202.646 74.5,303.5 Z"/></g>
<g><path style="opacity:1" fill="#852020" d="M 36.5,278.5 C 36.5,284.167 36.5,289.833 36.5,295.5C 31.9554,295.45 28.2887,297.117 25.5,300.5C 25.1667,301.5 24.5,302.167 23.5,302.5C 19.095,306.372 17.7616,311.039 19.5,316.5C 21.7221,325.388 27.3887,330.388 36.5,331.5C 36.5,399.833 36.5,468.167 36.5,536.5C 35.5084,536.328 34.8417,536.662 34.5,537.5C 32.7839,537.629 31.1172,537.962 29.5,538.5C 28.1667,538.833 26.8333,539.167 25.5,539.5C 17.3904,467.628 8.72376,395.961 -0.5,324.5C -0.5,319.833 -0.5,315.167 -0.5,310.5C 4.38045,291.29 16.7138,280.624 36.5,278.5 Z"/></g>
<g><path style="opacity:1" fill="#652020" d="M 36.5,278.5 C 56.4083,280.084 69.075,290.418 74.5,309.5C 74.5,314.5 74.5,319.5 74.5,324.5C 65.6858,394.348 57.0191,464.348 48.5,534.5C 47.6981,535.952 47.1981,537.618 47,539.5C 43.5772,538.269 40.0772,537.269 36.5,536.5C 36.5,468.167 36.5,399.833 36.5,331.5C 45.3674,330.945 51.3674,326.612 54.5,318.5C 56.9022,304.544 50.9022,296.877 36.5,295.5C 36.5,289.833 36.5,284.167 36.5,278.5 Z"/></g>
<g><path style="opacity:0.549" fill="#2b333c" d="M 36.5,295.5 C 50.9022,296.877 56.9022,304.544 54.5,318.5C 55.0813,305.972 49.2479,298.638 37,296.5C 32.8098,297 28.9765,298.333 25.5,300.5C 28.2887,297.117 31.9554,295.45 36.5,295.5 Z"/></g>
<g><path style="opacity:0.004" fill="#372a30" d="M 23.5,302.5 C 20.7633,306.716 19.4299,311.383 19.5,316.5C 17.7616,311.039 19.095,306.372 23.5,302.5 Z"/></g>
<g><path style="opacity:1" fill="#52514e" d="M 34.5,537.5 C 36.4743,547.111 37.141,557.111 36.5,567.5C 35.209,567.263 34.209,567.596 33.5,568.5C 23.6995,570.367 14.0329,572.7 4.5,575.5C 4.5,565.5 4.5,555.5 4.5,545.5C 7.00765,543.446 10.0076,542.446 13.5,542.5C 13.5,549.167 13.5,555.833 13.5,562.5C 18.8933,561.818 24.2266,560.818 29.5,559.5C 29.5,552.5 29.5,545.5 29.5,538.5C 31.1172,537.962 32.7839,537.629 34.5,537.5 Z"/></g>
<g><path style="opacity:0.996" fill="#363636" d="M 48.5,534.5 C 48.5,536.167 48.5,537.833 48.5,539.5C 55.4823,540.621 62.3156,542.287 69,544.5C 69.4998,554.828 69.6665,565.161 69.5,575.5C 58.6194,572.363 47.6194,569.697 36.5,567.5C 37.141,557.111 36.4743,547.111 34.5,537.5C 34.8417,536.662 35.5084,536.328 36.5,536.5C 40.0772,537.269 43.5772,538.269 47,539.5C 47.1981,537.618 47.6981,535.952 48.5,534.5 Z"/></g>
<g><path style="opacity:1" fill="#fadb30" d="M 29.5,538.5 C 29.5,545.5 29.5,552.5 29.5,559.5C 24.2266,560.818 18.8933,561.818 13.5,562.5C 13.5,555.833 13.5,549.167 13.5,542.5C 14.8333,542.5 16.1667,542.5 17.5,542.5C 17.5,547.5 17.5,552.5 17.5,557.5C 20.1667,557.167 22.8333,556.833 25.5,556.5C 25.5,550.833 25.5,545.167 25.5,539.5C 26.8333,539.167 28.1667,538.833 29.5,538.5 Z"/></g>
<g><path style="opacity:1" fill="#f1c110" d="M 25.5,539.5 C 25.5,545.167 25.5,550.833 25.5,556.5C 22.8333,556.833 20.1667,557.167 17.5,557.5C 17.5,552.5 17.5,547.5 17.5,542.5C 16.1667,542.5 14.8333,542.5 13.5,542.5C 17.2393,540.898 21.2393,539.898 25.5,539.5 Z"/></g>
<g><path style="opacity:1" fill="#f9db33" d="M 33.5,568.5 C 34.5,568.5 35.5,568.5 36.5,568.5C 36.756,572.269 36.4227,575.936 35.5,579.5C 25.2721,582.307 14.9388,584.64 4.5,586.5C 4.5,582.833 4.5,579.167 4.5,575.5C 14.0329,572.7 23.6995,570.367 33.5,568.5 Z"/></g>
<g><path style="opacity:1" fill="#f3c314" d="M 33.5,568.5 C 34.209,567.596 35.209,567.263 36.5,567.5C 47.6194,569.697 58.6194,572.363 69.5,575.5C 69.5,579.5 69.5,583.5 69.5,587.5C 58.2419,584.519 46.9085,581.852 35.5,579.5C 36.4227,575.936 36.756,572.269 36.5,568.5C 35.5,568.5 34.5,568.5 33.5,568.5 Z"/></g>
<g><path style="opacity:0.999" fill="#464645" d="M 4.5,545.5 C 4.5,555.5 4.5,565.5 4.5,575.5C 4.5,579.167 4.5,582.833 4.5,586.5C 14.9388,584.64 25.2721,582.307 35.5,579.5C 46.9085,581.852 58.2419,584.519 69.5,587.5C 69.5,589.833 69.5,592.167 69.5,594.5C 60.4774,596.506 51.4774,598.672 42.5,601C 41.0472,602.649 40.0472,604.482 39.5,606.5C 39.5,604.833 39.5,603.167 39.5,601.5C 38.5,601.5 37.5,601.5 36.5,601.5C 36.5,595.5 36.5,589.5 36.5,583.5C 26.7464,585.188 17.0798,587.355 7.5,590C 5.88066,590.236 4.88066,591.069 4.5,592.5C 3.16667,576.833 3.16667,561.167 4.5,545.5 Z"/></g>
<g><path style="opacity:1" fill="#5f5f5f" d="M 36.5,601.5 C 34.744,602.552 34.0773,604.219 34.5,606.5C 33.9528,604.482 32.9528,602.649 31.5,601C 23.5,599 15.5,597 7.5,595C 5.88066,594.764 4.88066,593.931 4.5,592.5C 4.88066,591.069 5.88066,590.236 7.5,590C 17.0798,587.355 26.7464,585.188 36.5,583.5C 36.5,589.5 36.5,595.5 36.5,601.5 Z"/></g>
<g><path style="opacity:0.755" fill="#541919" d="M 36.5,601.5 C 37.5,601.5 38.5,601.5 39.5,601.5C 39.5,603.167 39.5,604.833 39.5,606.5C 37.8333,634.5 36.1667,634.5 34.5,606.5C 34.0773,604.219 34.744,602.552 36.5,601.5 Z"/></g>
</svg>
