<?xml version="1.0" standalone="no"?>
<!DOCTYPE svg PUBLIC "-//W3C//DTD SVG 20010904//EN"
 "http://www.w3.org/TR/2001/REC-SVG-20010904/DTD/svg10.dtd">
<svg version="1.0" xmlns="http://www.w3.org/2000/svg"
 width="1284.000000pt" height="654.000000pt" viewBox="0 0 1284.000000 654.000000"
 preserveAspectRatio="xMidYMid meet">

<g transform="translate(0.000000,654.000000) scale(0.100000,-0.100000)"
fill="#000000" stroke="none">
<path d="M6460 6525 c0 -8 -86 -724 -192 -1592 -105 -868 -192 -1605 -191
-1638 0 -50 261 -2238 278 -2343 4 -24 11 -32 23 -30 15 3 17 -9 20 -98 2 -73
-1 -104 -10 -111 -18 -14 -147 -45 -159 -38 -5 4 -9 51 -9 106 0 91 -2 100
-17 95 -10 -3 -30 -8 -45 -12 l-28 -6 0 -159 c0 -104 4 -159 10 -159 6 0 83
18 170 40 l160 40 160 -40 c87 -22 164 -40 170 -40 6 0 10 55 10 160 l0 159
-37 10 c-21 6 -72 18 -113 29 l-75 19 2 34 c2 19 64 540 139 1159 76 619 137
1157 137 1195 0 39 -86 778 -192 1644 -105 866 -191 1578 -191 1583 0 4 -4 8
-10 8 -5 0 -10 -7 -10 -15z m96 -3050 c63 -32 96 -80 102 -150 9 -106 -63
-191 -172 -202 -98 -9 -191 66 -202 164 -8 63 7 110 49 153 63 65 139 77 223
35z"/>
<path d="M6280 451 l-145 -37 -3 -36 -3 -35 151 -38 c83 -21 153 -41 155 -45
3 -5 10 -56 17 -114 6 -58 14 -106 18 -106 3 0 12 48 19 108 7 59 15 110 19
113 4 3 57 18 117 33 200 49 185 42 185 81 0 39 20 30 -197 84 -67 17 -137 31
-155 30 -18 0 -98 -18 -178 -38z"/>
</g>
</svg>
