<?xml version="1.0" encoding="UTF-8"?>
<!DOCTYPE svg PUBLIC "-//W3C//DTD SVG 1.1//EN" "http://www.w3.org/Graphics/SVG/1.1/DTD/svg11.dtd">
<svg xmlns="http://www.w3.org/2000/svg" version="1.1" width="1284px" height="654px" style="shape-rendering:geometricPrecision; text-rendering:geometricPrecision; image-rendering:optimizeQuality; fill-rule:evenodd; clip-rule:evenodd" xmlns:xlink="http://www.w3.org/1999/xlink">
<g><path style="opacity:1" fill="#fefefe" d="M -0.5,-0.5 C 214.833,-0.5 430.167,-0.5 645.5,-0.5C 632.507,104.46 619.84,209.46 607.5,314.5C 606.35,319.316 606.184,324.316 607,329.5C 616.336,406.856 625.836,484.189 635.5,561.5C 634.209,561.263 633.209,561.596 632.5,562.5C 629.848,562.41 627.515,563.076 625.5,564.5C 623.901,564.232 622.568,564.566 621.5,565.5C 618.52,565.62 615.687,566.287 613,567.5C 612.5,578.161 612.333,588.828 612.5,599.5C 612.5,599.833 612.5,600.167 612.5,600.5C 611.517,604.298 611.183,608.298 611.5,612.5C 611.055,615.365 611.722,617.865 613.5,620C 623.539,622.51 633.539,625.01 643.5,627.5C 645.5,656.833 647.5,656.833 649.5,627.5C 659.089,624.852 668.756,622.352 678.5,620C 680.291,617.894 680.958,615.394 680.5,612.5C 680.5,608.167 680.5,603.833 680.5,599.5C 680.832,588.813 680.499,578.146 679.5,567.5C 672.604,565.359 665.604,563.693 658.5,562.5C 658.5,560.5 658.5,558.5 658.5,556.5C 667.68,480.85 676.68,405.183 685.5,329.5C 686.65,324.684 686.816,319.684 686,314.5C 673.246,209.472 660.413,104.472 647.5,-0.5C 859.5,-0.5 1071.5,-0.5 1283.5,-0.5C 1283.5,217.5 1283.5,435.5 1283.5,653.5C 855.5,653.5 427.5,653.5 -0.5,653.5C -0.5,435.5 -0.5,217.5 -0.5,-0.5 Z"/></g>
<g><path style="opacity:1" fill="#4d819e" d="M 645.5,-0.5 C 645.833,-0.5 646.167,-0.5 646.5,-0.5C 646.5,94.5 646.5,189.5 646.5,284.5C 644.265,284.205 642.265,284.539 640.5,285.5C 623.933,288.934 612.933,298.6 607.5,314.5C 619.84,209.46 632.507,104.46 645.5,-0.5 Z"/></g>
<g><path style="opacity:1" fill="#3b6477" d="M 646.5,-0.5 C 646.833,-0.5 647.167,-0.5 647.5,-0.5C 660.413,104.472 673.246,209.472 686,314.5C 686.816,319.684 686.65,324.684 685.5,329.5C 686.902,310.127 678.902,296.294 661.5,288C 656.624,286.233 651.624,285.067 646.5,284.5C 646.5,189.5 646.5,94.5 646.5,-0.5 Z"/></g>
<g><path style="opacity:1" fill="#892222" d="M 640.5,285.5 C 642.5,285.5 644.5,285.5 646.5,285.5C 646.5,291.167 646.5,296.833 646.5,302.5C 644.901,302.232 643.568,302.566 642.5,303.5C 633.407,305.764 628.407,311.597 627.5,321C 628.146,333.145 634.479,339.978 646.5,341.5C 646.5,413.833 646.5,486.167 646.5,558.5C 646.5,558.833 646.5,559.167 646.5,559.5C 644.139,559.674 641.806,560.007 639.5,560.5C 638.508,560.328 637.842,560.662 637.5,561.5C 636.833,561.5 636.167,561.5 635.5,561.5C 625.836,484.189 616.336,406.856 607,329.5C 606.184,324.316 606.35,319.316 607.5,314.5C 612.933,298.6 623.933,288.934 640.5,285.5 Z"/></g>
<g><path style="opacity:1" fill="#682222" d="M 640.5,285.5 C 642.265,284.539 644.265,284.205 646.5,284.5C 651.624,285.067 656.624,286.233 661.5,288C 678.902,296.294 686.902,310.127 685.5,329.5C 676.68,405.183 667.68,480.85 658.5,556.5C 657.837,558.042 657.17,559.709 656.5,561.5C 653.137,560.494 649.804,559.494 646.5,558.5C 646.5,486.167 646.5,413.833 646.5,341.5C 661.373,339.116 667.54,330.449 665,315.5C 662.673,312.341 660.173,309.341 657.5,306.5C 655.824,304.166 653.491,303.166 650.5,303.5C 647.833,303.5 645.167,303.5 642.5,303.5C 643.568,302.566 644.901,302.232 646.5,302.5C 646.5,296.833 646.5,291.167 646.5,285.5C 644.5,285.5 642.5,285.5 640.5,285.5 Z"/></g>
<g><path style="opacity:1" fill="#5d545d" d="M 650.5,303.5 C 653.491,303.166 655.824,304.166 657.5,306.5C 654.843,306.065 652.509,305.065 650.5,303.5 Z"/></g>
<g><path style="opacity:1" fill="#fafafa" d="M 642.5,303.5 C 645.167,303.5 647.833,303.5 650.5,303.5C 652.509,305.065 654.843,306.065 657.5,306.5C 660.173,309.341 662.673,312.341 665,315.5C 667.54,330.449 661.373,339.116 646.5,341.5C 634.479,339.978 628.146,333.145 627.5,321C 628.407,311.597 633.407,305.764 642.5,303.5 Z"/></g>
<g><path style="opacity:1" fill="#515050" d="M 646.5,559.5 C 646.5,570.167 646.5,580.833 646.5,591.5C 645.209,591.263 644.209,591.596 643.5,592.5C 633.133,594.675 622.799,597.008 612.5,599.5C 612.333,588.828 612.5,578.161 613,567.5C 615.687,566.287 618.52,565.62 621.5,565.5C 621.188,572.422 621.521,579.256 622.5,586C 628.228,585.736 633.561,584.236 638.5,581.5C 639.491,574.687 639.825,567.687 639.5,560.5C 641.806,560.007 644.139,559.674 646.5,559.5 Z"/></g>
<g><path style="opacity:1" fill="#383737" d="M 658.5,556.5 C 658.5,558.5 658.5,560.5 658.5,562.5C 665.604,563.693 672.604,565.359 679.5,567.5C 680.499,578.146 680.832,588.813 680.5,599.5C 669.091,597.148 657.757,594.481 646.5,591.5C 646.5,580.833 646.5,570.167 646.5,559.5C 646.5,559.167 646.5,558.833 646.5,558.5C 649.804,559.494 653.137,560.494 656.5,561.5C 657.17,559.709 657.837,558.042 658.5,556.5 Z"/></g>
<g><path style="opacity:1" fill="#fbdd33" d="M 632.5,562.5 C 633.209,561.596 634.209,561.263 635.5,561.5C 636.167,561.5 636.833,561.5 637.5,561.5C 638.491,567.979 638.824,574.646 638.5,581.5C 633.561,584.236 628.228,585.736 622.5,586C 621.521,579.256 621.188,572.422 621.5,565.5C 622.568,564.566 623.901,564.232 625.5,564.5C 625.171,570.206 625.505,575.872 626.5,581.5C 629.096,580.518 631.762,579.851 634.5,579.5C 635.117,573.402 634.45,567.735 632.5,562.5 Z"/></g>
<g><path style="opacity:1" fill="#fac813" d="M 632.5,562.5 C 634.45,567.735 635.117,573.402 634.5,579.5C 631.762,579.851 629.096,580.518 626.5,581.5C 625.505,575.872 625.171,570.206 625.5,564.5C 627.515,563.076 629.848,562.41 632.5,562.5 Z"/></g>
<g><path style="opacity:1" fill="#968943" d="M 637.5,561.5 C 637.842,560.662 638.508,560.328 639.5,560.5C 639.825,567.687 639.491,574.687 638.5,581.5C 638.824,574.646 638.491,567.979 637.5,561.5 Z"/></g>
<g><path style="opacity:1" fill="#fbdd32" d="M 643.5,592.5 C 644.5,592.5 645.5,592.5 646.5,592.5C 646.984,596.827 646.318,600.827 644.5,604.5C 634.133,606.675 623.799,609.008 613.5,611.5C 612.518,608.038 612.185,604.371 612.5,600.5C 612.5,600.167 612.5,599.833 612.5,599.5C 622.799,597.008 633.133,594.675 643.5,592.5 Z"/></g>
<g><path style="opacity:1" fill="#f4c413" d="M 643.5,592.5 C 644.209,591.596 645.209,591.263 646.5,591.5C 657.757,594.481 669.091,597.148 680.5,599.5C 680.5,603.833 680.5,608.167 680.5,612.5C 668.569,609.517 656.569,606.851 644.5,604.5C 646.318,600.827 646.984,596.827 646.5,592.5C 645.5,592.5 644.5,592.5 643.5,592.5 Z"/></g>
<g><path style="opacity:1" fill="#cebf66" d="M 612.5,600.5 C 612.185,604.371 612.518,608.038 613.5,611.5C 613.5,612.167 613.167,612.5 612.5,612.5C 612.167,612.5 611.833,612.5 611.5,612.5C 611.183,608.298 611.517,604.298 612.5,600.5 Z"/></g>
<g><path style="opacity:1" fill="#4e4d4c" d="M 644.5,604.5 C 656.569,606.851 668.569,609.517 680.5,612.5C 680.958,615.394 680.291,617.894 678.5,620C 668.756,622.352 659.089,624.852 649.5,627.5C 648.202,628.116 647.202,628.116 646.5,627.5C 646.5,620.833 646.5,614.167 646.5,607.5C 635.215,610.113 624.049,613.113 613,616.5C 612.51,615.207 612.343,613.873 612.5,612.5C 613.167,612.5 613.5,612.167 613.5,611.5C 623.799,609.008 634.133,606.675 644.5,604.5 Z"/></g>
<g><path style="opacity:1" fill="#666666" d="M 646.5,627.5 C 645.5,627.5 644.5,627.5 643.5,627.5C 633.539,625.01 623.539,622.51 613.5,620C 611.722,617.865 611.055,615.365 611.5,612.5C 611.833,612.5 612.167,612.5 612.5,612.5C 612.343,613.873 612.51,615.207 613,616.5C 624.049,613.113 635.215,610.113 646.5,607.5C 646.5,614.167 646.5,620.833 646.5,627.5 Z"/></g>
<g><path style="opacity:1" fill="#7d3230" d="M 643.5,627.5 C 644.5,627.5 645.5,627.5 646.5,627.5C 647.202,628.116 648.202,628.116 649.5,627.5C 647.5,656.833 645.5,656.833 643.5,627.5 Z"/></g>
</svg>
